#Comment line ignore any data following # character 
#Hierarchical Translation and Rotation (.htr) file 
[Header]	
#Header keywords are followed by a single value 
FileType HTR		#Single word string
DataType HTRS		#Translation followed by rotation and scale data
FileVersion 1		#integer
NumSegments 64		#integer
NumFrames 3		#integer
DataFrameRate 30		#integer, data frame rate in this file
EulerRotationOrder ZYX
CalibrationUnits mm
RotationUnits Degrees
GlobalAxisofGravity Y
BoneLengthAxis Y
ScaleFactor 1.00
[SegmentNames&Hierarchy]
#CHILD	PARENT
Pinger_Root GLOBAL
Pelvis Pinger_Root
L_Hip Pelvis
R_Hip Pelvis
Rear_Leg01 Pelvis
Spine1 Pelvis
L_Leg01 L_Hip
L_Leg02 L_Leg01
L_Leg03 L_Leg02
L_Foot L_Leg03
L_Toe1_01 L_Foot
L_Toe2_01 L_Foot
L_Toe3_01 L_Foot
planeAlignerLeft L_Foot
L_Toe1_02 L_Toe1_01
L_Toe1_03 L_Toe1_02
L_Toe2_02 L_Toe2_01
L_Toe2_03 L_Toe2_02
L_Toe3_02 L_Toe3_01
L_Toe3_03 L_Toe3_02
planeLockWeightLeft planeAlignerLeft
R_Leg01 R_Hip
R_Leg02 R_Leg01
R_Leg03 R_Leg02
R_Foot R_Leg03
planeAlignerRight R_Foot
R_Toe1_01 R_Foot
R_Toe2_01 R_Foot
R_Toe3_01 R_Foot
planeLockWeightRight planeAlignerRight
R_Toe1_02 R_Toe1_01
R_Toe1_03 R_Toe1_02
R_Toe2_02 R_Toe2_01
R_Toe2_03 R_Toe2_02
R_Toe3_02 R_Toe3_01
R_Toe3_03 R_Toe3_02
Rear_Leg02 Rear_Leg01
Rear_Leg03 Rear_Leg02
Rear_Leg04 Rear_Leg03
Rear_Foot Rear_Leg04
planeAlignerCenter Rear_Foot
Rear_Toe1_01 Rear_Foot
Rear_Toe2_01 Rear_Foot
Rear_Toe3_01 Rear_Foot
planeLockWeightCenter planeAlignerCenter
Rear_Toe1_02 Rear_Toe1_01
Rear_Toe1_03 Rear_Toe1_02
Rear_Toe2_02 Rear_Toe2_01
Rear_Toe2_03 Rear_Toe2_02
Rear_Toe3_02 Rear_Toe3_01
Rear_Toe3_03 Rear_Toe3_02
Back_Bone Spine1
Head Spine1
Motor_Bone Back_Bone
Ping_Mechanism Back_Bone
BN_LookIK Head
bottomMouth Head
L_Mouth01 Head
L_mouthFront Head
mouthGun Head
R_Mouth01 Head
R_mouthFront Head
TopMouth Head
weapon_bone Head
[BasePosition]
#SegmentName Tx, Ty, Tz, Rx, Ry, Rz, BoneLength
Pinger_Root 0.000000 0.000000 0.000000 -90.000000 0.000000 0.000000 10.000000 
Pelvis 0.000000 0.000000 0.000000 0.000000 0.000000 0.000000 10.000000 
L_Hip 0.000000 0.000000 0.000000 0.000000 0.000000 0.000000 10.000000 
R_Hip 0.000000 0.000000 0.000000 0.000000 0.000000 0.000000 10.000000 
Rear_Leg01 0.000000 0.000000 0.000000 0.000000 0.000000 0.000000 10.000000 
Spine1 0.000000 0.000000 0.000000 0.000000 0.000000 0.000000 10.000000 
L_Leg01 0.000000 0.000000 0.000000 0.000000 0.000000 0.000000 10.000000 
L_Leg02 0.000000 0.000000 0.000000 0.000000 0.000000 0.000000 10.000000 
L_Leg03 0.000000 0.000000 0.000000 0.000000 0.000000 0.000000 10.000000 
L_Foot 0.000000 0.000000 0.000000 0.000000 0.000000 0.000000 10.000000 
L_Toe1_01 0.000000 0.000000 0.000000 0.000000 0.000000 0.000000 10.000000 
L_Toe2_01 0.000000 0.000000 0.000000 0.000000 0.000000 0.000000 10.000000 
L_Toe3_01 0.000000 0.000000 0.000000 0.000000 0.000000 0.000000 10.000000 
planeAlignerLeft 0.000000 0.000000 0.000000 0.000000 0.000000 0.000000 10.000000 
L_Toe1_02 0.000000 0.000000 0.000000 0.000000 0.000000 0.000000 10.000000 
L_Toe1_03 0.000000 0.000000 0.000000 0.000000 0.000000 0.000000 10.000000 
L_Toe2_02 0.000000 0.000000 0.000000 0.000000 0.000000 0.000000 10.000000 
L_Toe2_03 0.000000 0.000000 0.000000 0.000000 0.000000 0.000000 10.000000 
L_Toe3_02 0.000000 0.000000 0.000000 0.000000 0.000000 0.000000 10.000000 
L_Toe3_03 0.000000 0.000000 0.000000 0.000000 0.000000 0.000000 10.000000 
planeLockWeightLeft 0.000000 0.000000 0.000000 0.000000 0.000000 0.000000 10.000000 
R_Leg01 0.000000 0.000000 0.000000 0.000000 0.000000 0.000000 10.000000 
R_Leg02 0.000000 0.000000 0.000000 0.000000 0.000000 0.000000 10.000000 
R_Leg03 0.000000 0.000000 0.000000 0.000000 0.000000 0.000000 10.000000 
R_Foot 0.000000 0.000000 0.000000 0.000000 0.000000 0.000000 10.000000 
planeAlignerRight 0.000000 0.000000 0.000000 0.000000 0.000000 0.000000 10.000000 
R_Toe1_01 0.000000 0.000000 0.000000 0.000000 0.000000 0.000000 10.000000 
R_Toe2_01 0.000000 0.000000 0.000000 0.000000 0.000000 0.000000 10.000000 
R_Toe3_01 0.000000 0.000000 0.000000 0.000000 0.000000 0.000000 10.000000 
planeLockWeightRight 0.000000 0.000000 0.000000 0.000000 0.000000 0.000000 10.000000 
R_Toe1_02 0.000000 0.000000 0.000000 0.000000 0.000000 0.000000 10.000000 
R_Toe1_03 0.000000 0.000000 0.000000 0.000000 0.000000 0.000000 10.000000 
R_Toe2_02 0.000000 0.000000 0.000000 0.000000 0.000000 0.000000 10.000000 
R_Toe2_03 0.000000 0.000000 0.000000 0.000000 0.000000 0.000000 10.000000 
R_Toe3_02 0.000000 0.000000 0.000000 0.000000 0.000000 0.000000 10.000000 
R_Toe3_03 0.000000 0.000000 0.000000 0.000000 0.000000 0.000000 10.000000 
Rear_Leg02 0.000000 0.000000 0.000000 0.000000 0.000000 0.000000 10.000000 
Rear_Leg03 0.000000 0.000000 0.000000 0.000000 0.000000 0.000000 10.000000 
Rear_Leg04 0.000000 0.000000 0.000000 0.000000 0.000000 0.000000 10.000000 
Rear_Foot 0.000000 0.000000 0.000000 0.000000 0.000000 0.000000 10.000000 
planeAlignerCenter 0.000000 0.000000 0.000000 0.000000 0.000000 0.000000 10.000000 
Rear_Toe1_01 0.000000 0.000000 0.000000 0.000000 0.000000 0.000000 10.000000 
Rear_Toe2_01 0.000000 0.000000 0.000000 0.000000 0.000000 0.000000 10.000000 
Rear_Toe3_01 0.000000 0.000000 0.000000 0.000000 0.000000 0.000000 10.000000 
planeLockWeightCenter 0.000000 0.000000 0.000000 0.000000 0.000000 0.000000 10.000000 
Rear_Toe1_02 0.000000 0.000000 0.000000 0.000000 0.000000 0.000000 10.000000 
Rear_Toe1_03 0.000000 0.000000 0.000000 0.000000 0.000000 0.000000 10.000000 
Rear_Toe2_02 0.000000 0.000000 0.000000 0.000000 0.000000 0.000000 10.000000 
Rear_Toe2_03 0.000000 0.000000 0.000000 0.000000 0.000000 0.000000 10.000000 
Rear_Toe3_02 0.000000 0.000000 0.000000 0.000000 0.000000 0.000000 10.000000 
Rear_Toe3_03 0.000000 0.000000 0.000000 0.000000 0.000000 0.000000 10.000000 
Back_Bone 0.000000 0.000000 0.000000 0.000000 0.000000 0.000000 10.000000 
Head 0.000000 0.000000 0.000000 0.000000 0.000000 0.000000 10.000000 
Motor_Bone 0.000000 0.000000 0.000000 0.000000 0.000000 0.000000 10.000000 
Ping_Mechanism 0.000000 0.000000 0.000000 0.000000 0.000000 0.000000 10.000000 
BN_LookIK 0.000000 0.000000 0.000000 0.000000 0.000000 0.000000 10.000000 
bottomMouth 0.000000 0.000000 0.000000 0.000000 0.000000 0.000000 10.000000 
L_Mouth01 0.000000 0.000000 0.000000 0.000000 0.000000 0.000000 10.000000 
L_mouthFront 0.000000 0.000000 0.000000 0.000000 0.000000 0.000000 10.000000 
mouthGun 0.000000 0.000000 0.000000 0.000000 0.000000 0.000000 10.000000 
R_Mouth01 0.000000 0.000000 0.000000 0.000000 0.000000 0.000000 10.000000 
R_mouthFront 0.000000 0.000000 0.000000 0.000000 0.000000 0.000000 10.000000 
TopMouth 0.000000 0.000000 0.000000 0.000000 0.000000 0.000000 10.000000 
weapon_bone 0.000000 0.000000 0.000000 0.000000 0.000000 0.000000 10.000000 
#Beginning of Data. Separated by tabs
#Fr	Tx	Ty	Tz	Rx	Ry	Rz	SF
[Pinger_Root]
113 0.000000 0.000000 0.000000 -0.000075 -0.000000 -0.000020 0.000000
114 0.000000 0.000000 0.000000 -0.000075 -0.000000 -0.000020 0.000000
115 0.000000 0.000000 0.000000 -0.000075 -0.000000 -0.000020 0.000000
[Pelvis]
113 321.127777 808.163086 4888.351563 -171.876328 -61.123035 165.236435 4965.101074
114 282.705719 811.737854 4879.068359 -172.150818 -60.074753 165.549347 4954.205078
115 242.877502 817.056274 4861.853516 -172.331009 -59.290802 165.757248 4936.009766
[L_Hip]
113 5.766392 125.831482 872.656799 175.171036 -59.108948 113.682350 881.701050
114 5.766392 125.831482 872.656799 163.470245 -61.609966 130.812134 881.701050
115 5.766392 125.831482 872.656799 149.405899 -62.598949 149.964401 881.701050
[R_Hip]
113 5.765438 125.836372 -872.654907 38.087841 49.812687 125.703735 881.699829
114 5.765438 125.836372 -872.654907 38.087841 49.812687 125.703735 881.699829
115 5.765438 125.836372 -872.654907 38.087841 49.812687 125.703735 881.699829
[Rear_Leg01]
113 -192.298416 -925.602966 -0.001907 160.437607 -29.581181 -161.391296 945.367432
114 -192.298416 -925.602966 -0.001907 160.117035 -30.137281 -161.229477 945.367432
115 -192.298416 -925.602966 -0.001907 159.862015 -30.396658 -161.049591 945.367432
[Spine1]
113 290.604584 5.007505 0.000477 18.389870 32.598640 24.081617 290.647736
114 290.604584 5.007505 0.000477 18.980194 33.847271 24.495638 290.647736
115 290.604584 5.007505 0.000477 19.434231 34.798031 24.814920 290.647736
[L_Leg01]
113 761.932007 -0.002384 -0.069261 15.616152 -29.652433 38.825321 761.932068
114 761.932007 -0.002384 -0.069261 18.099823 -33.149490 42.047806 761.932068
115 761.932007 -0.002384 -0.069261 22.073244 -35.675861 43.783024 761.932068
[L_Leg02]
113 1441.140503 -0.000954 -0.000715 0.468337 -0.205605 -137.399628 1441.140503
114 1441.140503 -0.000954 -0.000715 0.856685 -0.313025 -136.336655 1441.140503
115 1441.140503 -0.000954 -0.000715 1.188774 -0.309237 -132.926987 1441.140503
[L_Leg03]
113 1686.963989 -0.000715 -0.000954 0.090456 -0.013534 84.978668 1686.963989
114 1686.963989 -0.000715 -0.000954 0.061349 -0.012881 94.448654 1686.963989
115 1686.963989 -0.000715 -0.000954 0.026233 -0.006613 103.443069 1686.963989
[L_Foot]
113 3041.570068 -30.715107 11.297464 -2.283707 10.853117 61.532616 3041.746094
114 3041.570068 -30.715107 11.297464 -4.334516 15.946298 56.552910 3041.746094
115 3041.570068 -30.715107 11.297464 -6.754443 21.135687 50.729313 3041.746094
[L_Toe1_01]
113 -188.216690 -224.732346 -21.137953 95.649384 -5.529058 169.219040 293.899567
114 -188.216690 -224.732346 -21.137953 95.649353 -5.529231 169.220001 293.899567
115 -188.216690 -224.732346 -21.137953 95.649338 -5.529403 169.220978 293.899567
[L_Toe2_01]
113 200.746536 -219.926590 148.838394 -96.563766 -26.051958 -37.610439 332.896027
114 200.746536 -219.926590 148.838394 -96.563454 -26.051994 -37.611202 332.896027
115 200.746536 -219.926590 148.838394 -96.563133 -26.052031 -37.611961 332.896027
[L_Toe3_01]
113 188.832520 -219.859131 -191.078659 -96.721664 17.884241 -55.934429 347.140900
114 188.832520 -219.859131 -191.078659 -96.721771 17.883957 -55.935139 347.140900
115 188.832520 -219.859131 -191.078659 -96.721886 17.883677 -55.935837 347.140900
[planeAlignerLeft]
113 0.812531 -811.448792 -0.314951 0.000000 -90.000000 -90.001900 811.449280
114 0.812531 -811.448792 -0.314951 0.000000 -90.000000 -90.001900 811.449280
115 0.812531 -811.448792 -0.314951 0.000000 -90.000000 -90.001900 811.449280
[L_Toe1_02]
113 413.761139 0.000477 0.000000 0.001442 -18.913219 0.001442 413.761139
114 413.761139 0.000477 0.000000 0.001442 -18.914131 0.001442 413.761139
115 413.761139 0.000477 0.000000 0.001442 -18.915043 0.001442 413.761139
[L_Toe1_03]
113 464.317322 0.000358 -0.000089 -179.986145 85.780807 -179.982651 464.317322
114 464.317322 0.000358 -0.000089 -179.986130 85.781792 -179.982635 464.317322
115 464.317322 0.000358 -0.000089 -179.986130 85.782715 -179.982635 464.317322
[L_Toe2_02]
113 342.235809 -0.000477 0.000238 0.004685 -80.894547 0.004685 342.235809
114 342.235809 -0.000477 0.000238 0.004685 -80.893532 0.004685 342.235809
115 342.235809 -0.000477 0.000238 0.004685 -80.892448 0.004685 342.235809
[L_Toe2_03]
113 420.210846 -0.000715 0.000000 179.992340 55.859135 179.999664 420.210846
114 420.210846 -0.000715 0.000000 179.992340 55.860073 179.999664 420.210846
115 420.210846 -0.000715 0.000000 179.992340 55.861004 179.999664 420.210846
[L_Toe3_02]
113 329.270111 0.000954 0.000000 0.004675 -84.673027 0.004675 329.270111
114 329.270111 0.000954 0.000000 0.004675 -84.673065 0.004675 329.270111
115 329.270111 0.000954 0.000000 0.004675 -84.672951 0.004675 329.270111
[L_Toe3_03]
113 439.137451 -0.001907 0.000954 179.993134 45.336155 -179.999313 439.137451
114 439.137451 -0.001907 0.000954 179.993134 45.337250 -179.999313 439.137451
115 439.137451 -0.001907 0.000954 179.993134 45.338337 -179.999313 439.137451
[planeLockWeightLeft]
113 -0.000954 0.000238 -0.000305 -0.011826 -0.004376 0.005620 0.001029
114 -0.000954 0.000238 -0.000305 -0.011826 -0.004376 0.005620 0.001029
115 -0.000954 0.000238 -0.000305 -0.011826 -0.004376 0.005620 0.001029
[R_Leg01]
113 761.455627 -0.001907 -0.000358 146.381042 -40.815578 38.812801 761.455688
114 761.455627 -0.001907 -0.000358 153.929184 -39.831364 31.899996 761.455688
115 761.455627 -0.001907 -0.000358 161.082275 -37.682777 25.564390 761.455688
[R_Leg02]
113 1441.140625 0.000000 -0.000238 -0.491817 0.500505 -104.114639 1441.140625
114 1441.140625 0.000000 -0.000238 -1.144244 1.252896 -105.179382 1441.140625
115 1441.140625 0.000000 -0.000238 -1.331495 1.642134 -106.142929 1441.140625
[R_Leg03]
113 1686.963989 0.000954 0.001431 -0.141172 0.002414 71.942474 1686.963989
114 1686.963989 0.000954 0.001431 -0.160883 -0.005230 66.260414 1686.963989
115 1686.963989 0.000954 0.001431 -0.178283 -0.013563 61.021572 1686.963989
[R_Foot]
113 3041.560059 -30.531288 -11.204481 -8.260694 -20.655548 77.244469 3041.734131
114 3041.560059 -30.531288 -11.204481 -8.077298 -16.031301 79.562225 3041.734131
115 3041.560059 -30.531288 -11.204481 -7.788105 -11.086456 81.594734 3041.734131
[planeAlignerRight]
113 -0.635147 -812.270569 -0.364304 0.000000 -89.960434 -90.005180 812.270874
114 -0.635147 -812.270569 -0.364304 0.000000 -89.960434 -90.005180 812.270874
115 -0.635147 -812.270569 -0.364304 0.000000 -89.960434 -90.005180 812.270874
[R_Toe1_01]
113 -188.383347 -224.864899 21.052242 77.187531 -3.252871 172.296539 294.101532
114 -188.383347 -224.864899 21.052242 77.187485 -3.252755 172.296982 294.101532
115 -188.383347 -224.864899 21.052242 77.187439 -3.252640 172.297394 294.101532
[R_Toe2_01]
113 200.637817 -220.002121 -148.787384 -84.903473 32.506382 -46.585850 332.857574
114 200.637817 -220.002121 -148.787384 -84.903770 32.506367 -46.586430 332.857574
115 200.637817 -220.002121 -148.787384 -84.904083 32.506363 -46.587017 332.857574
[R_Toe3_01]
113 188.606735 -220.092957 191.126343 -74.389832 -14.491739 -66.149002 347.192566
114 188.606735 -220.092957 191.126343 -74.389824 -14.491513 -66.149475 347.192566
115 188.606735 -220.092957 191.126343 -74.389832 -14.491297 -66.149956 347.192566
[planeLockWeightRight]
113 -0.000477 0.000000 0.000000 -0.011823 -0.004379 -0.000027 0.000477
114 -0.000477 0.000000 0.000000 -0.011823 -0.004379 -0.000027 0.000477
115 -0.000477 0.000000 0.000000 -0.011823 -0.004379 -0.000027 0.000477
[R_Toe1_02]
113 413.762085 0.000477 -0.000119 0.001470 -15.974102 0.001470 413.762085
114 413.762085 0.000477 -0.000119 0.001470 -15.974737 0.001470 413.762085
115 413.762085 0.000477 -0.000119 0.001470 -15.975370 0.001470 413.762085
[R_Toe1_03]
113 464.317810 0.000000 0.001088 -179.996872 76.492973 -179.993347 464.317810
114 464.317810 0.000000 0.001088 -179.996872 76.493431 -179.993347 464.317810
115 464.317810 0.000000 0.001088 -179.996872 76.493896 -179.993347 464.317810
[R_Toe2_02]
113 342.234741 -0.000954 0.000238 -0.002332 -79.713654 -0.002332 342.234741
114 342.234741 -0.000954 0.000238 -0.002332 -79.713097 -0.002332 342.234741
115 342.234741 -0.000954 0.000238 -0.002332 -79.712502 -0.002332 342.234741
[R_Toe2_03]
113 420.210846 0.000715 -0.000268 -179.995560 65.012291 -179.999130 420.210846
114 420.210846 0.000715 -0.000268 -179.995560 65.012718 -179.999130 420.210846
115 420.210846 0.000715 -0.000268 -179.995560 65.013145 -179.999130 420.210846
[R_Toe3_02]
113 329.270355 -0.000477 -0.000954 0.001175 -83.681618 0.001175 329.270355
114 329.270355 -0.000477 -0.000954 0.001175 -83.681114 0.001175 329.270355
115 329.270355 -0.000477 -0.000954 0.001175 -83.680687 0.001175 329.270355
[R_Toe3_03]
113 439.137939 0.000238 0.001431 -179.994339 60.982933 -179.987106 439.137939
114 439.137939 0.000238 0.001431 -179.994339 60.983475 -179.987106 439.137939
115 439.137939 0.000238 0.001431 -179.994339 60.983986 -179.987106 439.137939
[Rear_Leg02]
113 1162.777710 -0.029802 0.005960 -0.205309 -2.989172 -106.949501 1162.777710
114 1162.777710 -0.029802 0.005960 -0.189556 -2.988714 -107.288170 1162.777710
115 1162.777710 -0.029802 0.005960 -0.155397 -2.990436 -107.914360 1162.777710
[Rear_Leg03]
113 607.192505 -0.013351 -0.073195 0.006584 -0.001742 57.854721 607.192505
114 607.192505 -0.013351 -0.073195 0.006582 -0.001748 57.956429 607.192505
115 607.192505 -0.013351 -0.073195 0.006577 -0.001768 58.301853 607.192505
[Rear_Leg04]
113 995.874512 -0.020504 -0.011921 -0.036780 -0.014738 46.328503 995.874573
114 995.874512 -0.020504 -0.011921 -0.036803 -0.014681 46.506023 995.874573
115 995.874512 -0.020504 -0.011921 -0.036862 -0.014532 46.969326 995.874573
[Rear_Foot]
113 3096.176270 -0.067472 -0.041425 -159.623657 82.326836 30.226028 3096.176270
114 3096.176270 -0.067472 -0.041425 -158.481567 82.734154 31.457335 3096.176270
115 3096.176270 -0.067472 -0.041425 -157.199341 83.138077 32.828720 3096.176270
[planeAlignerCenter]
113 0.350077 0.966311 -838.790894 0.000009 0.000003 -179.999985 838.791565
114 0.350077 0.966311 -838.790894 0.000009 0.000003 -179.999985 838.791565
115 0.350077 0.966311 -838.790894 0.000009 0.000003 -179.999985 838.791565
[Rear_Toe1_01]
113 0.653352 83.966492 -371.173737 0.291781 41.138481 90.406425 380.553192
114 0.653352 83.966492 -371.173737 0.291800 41.138504 90.406418 380.553192
115 0.653352 83.966492 -371.173737 0.291820 41.138523 90.406410 380.553192
[Rear_Toe2_01]
113 178.200760 -294.826019 -362.060547 -7.262006 33.854382 -66.229767 499.765686
114 178.200760 -294.826019 -362.060547 -7.262027 33.854401 -66.229782 499.765686
115 178.200760 -294.826019 -362.060547 -7.262045 33.854424 -66.229797 499.765686
[Rear_Toe3_01]
113 -153.359680 -308.780914 -362.060852 3.322300 32.989574 -112.582558 499.952881
114 -153.359680 -308.780914 -362.060852 3.322300 32.989574 -112.582558 499.952881
115 -153.359680 -308.780914 -362.060852 3.322300 32.989574 -112.582558 499.952881
[planeLockWeightCenter]
113 -0.000062 0.000238 0.000000 -0.011814 -0.004373 -0.000015 0.000246
114 -0.000062 0.000238 0.000000 -0.011814 -0.004373 -0.000015 0.000246
115 -0.000062 0.000238 0.000000 -0.011814 -0.004373 -0.000015 0.000246
[Rear_Toe1_02]
113 379.707825 0.194073 0.000477 -0.000261 -31.944153 0.006945 379.707855
114 379.707825 0.194073 0.000477 -0.000261 -31.944164 0.006945 379.707855
115 379.707825 0.194073 0.000477 -0.000261 -31.944164 0.006945 379.707855
[Rear_Toe1_03]
113 500.129700 0.165701 0.000119 0.000045 53.309292 0.007413 500.129761
114 500.129700 0.165701 0.000119 0.000045 53.309292 0.007413 500.129761
115 500.129700 0.165701 0.000119 0.000045 53.309292 0.007413 500.129761
[Rear_Toe2_02]
113 340.494507 0.000238 -0.000954 0.001191 -70.483078 0.001191 340.494507
114 340.494507 0.000238 -0.000954 0.001191 -70.483078 0.001191 340.494507
115 340.494507 0.000238 -0.000954 0.001191 -70.483078 0.001191 340.494507
[Rear_Toe2_03]
113 433.103577 0.000000 0.000238 0.007024 70.762222 0.007024 433.103546
114 433.103577 0.000000 0.000238 0.007024 70.762184 0.007024 433.103546
115 433.103577 0.000000 0.000238 0.007024 70.762161 0.007024 433.103546
[Rear_Toe3_02]
113 340.494141 -0.000358 -0.000477 0.005694 -67.923424 -0.005483 340.494171
114 340.494141 -0.000358 -0.000477 0.005734 -67.923401 -0.005543 340.494171
115 340.494141 -0.000358 -0.000477 0.005774 -67.923447 -0.005602 340.494171
[Rear_Toe3_03]
113 433.103577 0.001431 -0.000238 0.005868 66.924934 0.005868 433.103546
114 433.103577 0.001431 -0.000238 0.005868 66.924889 0.005868 433.103546
115 433.103577 0.001431 -0.000238 0.005868 66.924866 0.005868 433.103546
[Back_Bone]
113 1312.175781 -701.934692 0.000954 1.463938 -0.191912 -78.410606 1488.125488
114 1312.175781 -701.934692 0.000954 1.463902 -0.192985 -78.598907 1488.125488
115 1312.175781 -701.934692 0.000954 1.462440 -0.192142 -79.060585 1488.125488
[Head]
113 1406.159424 809.709290 0.001431 7.964736 -4.785537 4.115433 1622.625488
114 1406.159424 809.709290 0.001431 5.953712 -5.908380 3.185842 1622.625488
115 1406.159424 809.709290 0.001431 3.620714 -7.175230 2.531471 1622.625488
[Motor_Bone]
113 1158.364380 -417.834747 0.000477 -0.000105 0.000046 -105.985291 1231.419434
114 1158.364380 -417.834747 0.000477 -0.000105 0.000046 -105.985291 1231.419434
115 1158.364380 -417.834747 0.000477 -0.000105 0.000046 -105.985291 1231.419434
[Ping_Mechanism]
113 1269.184326 -406.523743 -131.213135 0.000103 -0.000053 82.120995 1339.144165
114 1270.850830 -403.372101 -134.792191 0.000103 -0.000053 82.120995 1340.126709
115 1272.516968 -400.220581 -138.371048 0.000103 -0.000053 82.120995 1341.127319
[BN_LookIK]
113 193.241119 1380.371704 -0.002861 0.000000 89.965736 -31.038179 1393.832153
114 193.241119 1380.371704 -0.002861 0.000000 89.965736 -31.038179 1393.832153
115 193.241119 1380.371704 -0.002861 0.000000 89.965736 -31.038179 1393.832153
[bottomMouth]
113 -435.092926 615.759399 -0.000954 -0.000022 0.000016 73.527184 753.966492
114 -435.092926 615.759399 -0.000954 -0.000022 0.000016 73.527184 753.966492
115 -435.092926 615.759399 -0.000954 -0.000022 0.000016 73.527184 753.966492
[L_Mouth01]
113 554.440979 7.658243 838.222046 150.204178 23.759130 109.605339 1005.027161
114 554.440979 7.658243 838.222046 150.204178 23.759130 109.605339 1005.027161
115 554.440979 7.658243 838.222046 150.204178 23.759130 109.605339 1005.027161
[L_mouthFront]
113 551.629089 934.514771 339.150421 0.000081 2.804060 79.119301 1136.941284
114 551.629089 934.514771 339.150421 0.000081 2.804060 79.119301 1136.941284
115 551.629089 934.514771 339.150421 0.000081 2.804060 79.119301 1136.941284
[mouthGun]
113 55.332661 1627.420898 0.000000 0.000023 0.000009 -11.038128 1628.361328
114 55.332661 1627.420898 0.000000 0.000023 0.000009 -11.038128 1628.361328
115 55.332661 1627.420898 0.000000 0.000023 0.000009 -11.038128 1628.361328
[R_Mouth01]
113 554.442383 7.659197 -838.223938 29.795891 -23.759109 109.605331 1005.029541
114 554.442383 7.659197 -838.223938 29.795891 -23.759109 109.605331 1005.029541
115 554.442383 7.659197 -838.223938 29.795891 -23.759109 109.605331 1005.029541
[R_mouthFront]
113 551.629089 934.514282 -339.151367 0.000029 -2.803930 79.119133 1136.941162
114 551.629089 934.514282 -339.151367 0.000029 -2.803930 79.119133 1136.941162
115 551.629089 934.514282 -339.151367 0.000029 -2.803930 79.119133 1136.941162
[TopMouth]
113 461.269867 -56.106091 -0.008583 -0.000059 -0.000268 92.025169 464.669525
114 461.269867 -56.106091 -0.008583 -0.000059 -0.000268 92.025169 464.669525
115 461.269867 -56.106091 -0.008583 -0.000059 -0.000268 92.025169 464.669525
[weapon_bone]
113 -987.239868 1448.372803 0.001431 0.000000 89.965736 -31.038221 1752.833740
114 -987.239868 1448.372803 0.001431 0.000000 89.965736 -31.038221 1752.833740
115 -987.239868 1448.372803 0.001431 0.000000 89.965736 -31.038221 1752.833740
